<?xml version="1.0" standalone="no"?>
<!DOCTYPE svg PUBLIC "-//W3C//DTD SVG 20010904//EN"
 "http://www.w3.org/TR/2001/REC-SVG-20010904/DTD/svg10.dtd">
<svg version="1.0" xmlns="http://www.w3.org/2000/svg"
 width="415.000000pt" height="415.000000pt" viewBox="0 0 415.000000 415.000000"
 preserveAspectRatio="xMidYMid meet">
<metadata>
Created by potrace 1.14, written by Peter Selinger 2001-2017
</metadata>
<g transform="translate(0.000000,415.000000) scale(0.100000,-0.100000)"
fill="#000000" stroke="none">
<path d="M1802 3855 c-105 -46 -230 -171 -306 -308 l-35 -62 -88 -24 c-261
-71 -478 -201 -656 -392 -48 -52 -93 -98 -99 -104 -118 -105 -196 -247 -230
-415 -16 -79 -31 -124 -63 -181 -87 -157 -153 -341 -181 -503 -12 -68 -15
-130 -11 -246 6 -177 21 -249 91 -424 25 -61 43 -112 42 -114 -2 -1 -61 -7
-132 -12 -71 -5 -130 -10 -131 -10 -2 0 -3 -147 -3 -328 l0 -327 183 -28 c101
-15 233 -32 293 -38 60 -7 113 -15 118 -20 5 -4 6 -19 2 -33 -5 -21 -10 -24
-39 -20 -17 2 -147 22 -287 44 -140 22 -258 40 -262 40 -5 0 -7 -39 -6 -87 l3
-86 73 -25 c79 -26 95 -40 22 -18 -25 7 -57 16 -72 20 l-28 6 0 -80 0 -80 223
0 224 0 92 100 c52 56 95 99 98 97 2 -3 -16 -46 -41 -96 -25 -50 -46 -93 -46
-95 0 -2 65 -5 144 -5 l145 -2 6 38 c21 119 106 417 124 427 3 2 58 -11 121
-30 214 -65 312 -78 610 -78 170 0 272 3 283 10 14 8 -31 13 -176 18 -598 20
-946 139 -1240 425 -188 182 -291 355 -353 590 -27 105 -29 99 43 127 41 16
44 16 95 -7 47 -21 67 -24 178 -23 l125 0 160 58 c384 139 443 152 622 142
137 -7 196 -20 465 -96 297 -84 404 -104 563 -105 139 0 169 6 332 67 71 26
90 29 139 23 68 -8 156 -36 250 -80 68 -31 72 -35 78 -71 3 -22 4 -97 2 -169
-5 -181 -36 -262 -153 -407 -86 -106 -183 -177 -378 -274 -60 -31 -114 -60
-119 -65 -20 -19 6 -21 75 -5 109 25 113 24 183 -47 68 -68 128 -174 166 -292
42 -129 74 -175 123 -175 17 0 27 3 24 7 -4 3 11 14 34 25 27 12 44 27 52 48
15 38 48 40 76 4 26 -34 26 -49 0 -67 -19 -14 -7 -15 113 -16 87 -1 152 4 188
13 47 12 56 12 63 0 12 -21 29 -17 22 5 -5 17 1 22 37 32 24 6 60 20 80 30 21
11 38 17 38 14 0 -12 -23 -50 -43 -72 -16 -18 -17 -23 -5 -23 21 0 44 28 68
83 27 60 58 77 95 53 28 -19 28 -29 -5 -98 -17 -36 -17 -38 -1 -38 12 0 22 16
35 55 9 30 21 57 27 61 15 9 79 -5 79 -17 0 -6 -5 -7 -11 -4 -7 5 -8 -8 -3
-41 9 -64 14 -68 16 -13 0 24 2 63 4 86 l3 43 -29 -15 c-22 -11 -30 -12 -33
-2 -4 9 -6 9 -6 0 -1 -16 -35 -17 -62 -3 -18 10 -18 12 7 49 20 31 24 46 19
73 -6 29 -3 36 19 47 22 12 28 11 52 -8 36 -28 44 -18 11 13 -22 20 -25 30
-21 63 8 57 13 66 29 59 13 -5 15 29 15 258 l0 263 -24 22 c-13 13 -26 31 -29
42 -4 15 0 19 24 19 27 0 29 3 29 36 0 37 -30 121 -87 239 -53 111 -40 121 27
20 l60 -90 0 52 c0 44 -7 62 -40 115 -22 35 -40 69 -40 76 0 7 15 12 40 12 35
0 54 13 32 22 -5 2 -22 33 -39 70 -32 68 -75 108 -116 108 -10 0 -15 5 -12 11
7 10 75 6 148 -7 22 -5 27 -2 27 14 0 16 -9 20 -52 26 -29 3 -90 6 -135 6
l-83 0 0 123 c0 67 -7 167 -15 222 l-15 99 34 36 c132 137 233 407 182 485
-21 31 -132 88 -217 110 -78 21 -223 45 -268 45 -29 0 -44 11 -117 89 -46 49
-118 115 -160 147 l-76 58 9 81 c20 200 -1 346 -59 402 -29 27 -32 28 -141 27
-102 0 -122 -4 -222 -38 -108 -36 -200 -81 -280 -137 l-40 -27 -100 18 c-55
10 -143 21 -196 25 l-96 7 -13 42 c-16 53 -94 204 -123 236 -53 61 -100 73
-165 45z m125 -62 c16 -21 39 -54 51 -74 22 -37 84 -181 80 -184 -2 -1 -44 0
-95 3 l-91 4 -22 59 c-11 33 -31 71 -44 86 l-23 27 -31 -23 c-28 -20 -47 -52
-22 -36 14 8 13 5 -12 -62 -24 -62 -32 -73 -62 -73 -17 0 -17 2 -5 18 18 22
39 60 39 69 0 5 -19 -14 -43 -40 -33 -38 -53 -51 -94 -62 -30 -7 -53 -9 -53
-4 0 27 121 184 182 238 57 49 138 91 180 91 30 0 41 -6 65 -37z m-99 -192
l20 -58 -61 -7 c-33 -3 -62 -4 -64 -2 -6 5 27 98 44 124 20 32 36 16 61 -57z
m1317 25 c42 -42 58 -122 53 -270 -2 -72 -7 -137 -11 -144 -6 -9 -16 -6 -40
12 -18 12 -60 38 -95 57 -60 32 -63 36 -57 64 31 158 31 210 -3 217 -26 6 -80
-24 -157 -89 l-70 -59 -109 32 -108 31 28 20 c36 26 155 85 214 107 73 27 170
44 253 45 69 1 81 -2 102 -23z m-152 -107 c5 -19 -1 -75 -19 -157 -4 -18 -12
-31 -18 -29 -6 3 -46 19 -89 37 -76 32 -77 33 -60 53 25 27 153 117 168 117 7
0 15 -9 18 -21z m-1099 -59 c45 -17 31 -32 -21 -25 l-48 7 35 -26 c32 -24 35
-25 42 -9 5 11 6 5 3 -16 -7 -43 -29 -69 -80 -92 -43 -20 -130 -25 -140 -9 -3
6 -14 10 -24 10 -10 0 -44 21 -75 46 l-56 46 39 28 c32 24 53 29 137 38 139
13 159 13 188 2z m250 2 l39 -7 -35 -27 c-70 -53 -98 -62 -153 -46 -42 13 -50
20 -61 51 l-13 37 92 -1 c51 0 110 -3 131 -7z m166 -18 c8 -2 21 -13 28 -25
14 -22 14 -22 -50 -15 -111 13 -118 15 -105 38 10 16 19 18 62 13 28 -4 57 -8
65 -11z m-740 -10 c0 -6 -62 -29 -72 -26 -20 5 -5 -15 25 -36 18 -12 46 -35
61 -51 27 -28 27 -28 10 -70 -9 -23 -28 -50 -43 -60 -36 -26 -166 -71 -203
-71 -30 0 -178 82 -178 99 0 4 20 24 45 44 34 29 45 45 44 65 l-1 27 -13 -32
c-16 -35 -39 -53 -138 -108 -54 -30 -75 -36 -103 -32 -33 6 -34 4 -34 -25 0
-24 -13 -43 -63 -92 -78 -75 -124 -101 -160 -92 -15 3 -27 11 -27 17 0 20 124
140 210 205 91 68 245 148 350 183 122 40 290 72 290 55z m890 -14 c94 -20
248 -66 262 -79 4 -4 1 -17 -8 -29 -13 -19 -24 -22 -92 -22 -114 0 -146 12
-221 86 -36 35 -59 64 -51 64 8 0 58 -9 110 -20z m-167 -27 c62 -5 71 -9 93
-38 30 -39 30 -46 1 -73 -25 -23 -102 -42 -172 -42 -36 0 -48 5 -69 30 -15 18
-23 38 -20 48 4 11 3 13 -3 5 -6 -8 -14 -6 -31 7 l-23 19 29 15 c16 8 35 22
42 31 11 13 23 15 50 11 19 -4 66 -9 103 -13z m-307 -29 c53 -18 107 -61 97
-77 -3 -6 -2 -7 4 -4 5 3 24 -9 42 -27 31 -32 32 -35 18 -62 -22 -43 -87 -76
-151 -76 -91 -1 -236 78 -236 128 0 8 6 14 13 14 30 0 114 52 136 85 13 19 24
35 26 35 1 0 24 -7 51 -16z m848 -68 l77 -33 -47 -32 c-26 -17 -52 -31 -58
-31 -5 0 3 -13 18 -29 l27 -29 -36 -22 c-35 -22 -37 -22 -94 -6 -31 9 -69 16
-84 16 -25 0 -27 3 -27 44 0 29 -7 52 -21 70 l-21 27 62 -3 c59 -2 64 -1 89
29 14 17 29 32 32 32 3 1 40 -14 83 -33z m-333 -17 c46 -17 61 -28 73 -54 21
-43 20 -68 -3 -96 -16 -20 -27 -24 -70 -22 -48 2 -54 5 -105 60 l-54 58 28 11
c15 7 36 24 46 38 11 14 21 26 23 26 2 0 30 -10 62 -21z m-791 -19 c14 0 25
-11 35 -34 14 -32 37 -56 81 -82 16 -9 16 -14 5 -42 -22 -53 -72 -89 -135 -97
-73 -9 -114 6 -182 67 l-55 51 62 31 c59 30 86 60 103 119 5 16 8 17 35 2 17
-8 39 -15 51 -15z m1326 -62 c51 -28 110 -65 130 -81 36 -30 36 -31 32 -94 -3
-48 -9 -69 -26 -85 -12 -13 -22 -17 -22 -10 0 7 5 12 10 12 15 0 3 46 -35 125
-33 71 -68 123 -63 95 2 -8 9 -21 16 -28 17 -18 15 -26 -8 -47 -24 -22 -26
-40 -4 -31 9 3 12 2 9 -5 -4 -6 0 -18 7 -27 41 -47 25 -39 -21 10 -34 38 -75
69 -117 89 -36 18 -67 36 -69 40 -3 4 22 -6 56 -22 33 -16 65 -27 70 -23 5 3
8 0 7 -7 -2 -7 4 -13 12 -14 8 0 14 -6 13 -13 -4 -18 12 -14 32 8 15 17 16 22
4 36 -7 9 -14 23 -15 31 -2 8 -4 16 -6 17 -95 68 -108 71 -157 34 -23 -16 -41
-27 -41 -25 0 6 81 67 88 67 3 0 47 -23 98 -52z m-1811 -44 c43 -25 45 -28 32
-48 -8 -11 -42 -42 -77 -68 -47 -36 -72 -48 -98 -48 -35 0 -155 48 -150 60 2
3 17 27 33 52 21 33 39 48 60 52 17 3 50 19 75 36 43 29 45 29 62 10 10 -11
38 -31 63 -46z m1144 12 c46 -49 51 -59 51 -100 0 -39 -4 -48 -37 -75 -21 -18
-59 -35 -90 -42 -84 -19 -163 19 -163 79 0 11 -11 35 -24 54 l-23 35 34 18
c19 10 41 31 50 46 15 25 24 29 77 32 34 2 64 4 67 5 3 1 29 -22 58 -52z m612
-94 c86 -60 145 -166 115 -207 -10 -14 -20 -13 -97 7 -57 15 -84 27 -82 36 8
21 -36 99 -77 135 l-38 35 35 25 c42 30 63 25 144 -31z m-1598 31 l53 14 38
-33 37 -32 -19 -39 c-26 -49 -56 -77 -112 -102 -58 -27 -84 -26 -147 3 -53 25
-99 76 -75 84 27 9 111 82 117 102 6 20 8 20 31 5 21 -14 30 -14 77 -2z m565
-3 c24 -6 59 -8 76 -4 52 9 88 -37 88 -112 0 -94 -61 -147 -169 -146 -56 0
-72 5 -107 29 -22 16 -55 48 -74 73 l-34 44 29 14 c41 21 80 60 94 94 9 23 17
29 33 25 12 -3 41 -11 64 -17z m672 1 c-14 -3 -33 -11 -44 -17 -18 -11 -18
-12 -1 -40 l18 -29 -25 30 -26 30 27 17 c14 9 37 16 51 16 l25 0 -25 -7z m140
-31 c52 -26 109 -89 122 -133 18 -58 3 -64 -79 -32 -37 15 -96 30 -131 33 -68
5 -66 4 -76 46 -6 24 -4 28 10 22 12 -5 15 -2 10 11 -6 15 -5 16 5 6 7 -7 18
-13 24 -13 5 0 4 4 -4 9 -11 7 -9 13 10 32 13 13 27 23 32 22 17 -6 5 9 -15
18 -18 7 -15 8 17 3 21 -3 55 -14 75 -24z m-251 -5 c26 -13 71 -84 71 -112 0
-6 -17 -14 -37 -18 -57 -10 -128 -53 -179 -107 -25 -27 -49 -46 -55 -43 -5 4
-9 26 -9 51 0 25 -4 53 -10 63 -8 16 -3 21 36 36 25 9 63 34 85 55 21 20 39
34 39 30 0 -4 -9 -15 -21 -26 -18 -17 -19 -19 -4 -30 9 -7 17 -16 18 -21 1 -4
6 -7 11 -5 5 2 4 -4 -4 -13 -10 -12 -3 -11 31 5 24 11 52 20 62 20 49 0 -7
102 -66 119 -18 5 -24 10 -14 10 10 1 31 -6 46 -14z m878 -140 c32 -34 85 -99
117 -144 65 -91 65 -107 -1 -97 -21 3 -57 8 -80 12 -24 3 -43 10 -43 14 0 5
-9 11 -19 15 -16 5 -18 13 -14 45 11 77 -52 160 -121 160 -25 0 -25 0 -10 35
7 19 14 51 14 71 l0 36 50 -42 c27 -23 76 -70 107 -105z m-2452 93 c30 -13 31
-33 9 -107 -10 -34 -30 -69 -57 -98 l-42 -45 -16 55 c-9 30 -27 69 -39 87 -12
17 -21 32 -19 33 2 1 21 10 41 21 20 10 47 29 59 42 26 28 29 28 64 12z m640
-14 c35 -17 63 -24 92 -23 40 3 44 0 72 -42 35 -51 38 -78 12 -135 -24 -52
-61 -81 -116 -90 -84 -12 -134 21 -193 127 l-31 57 37 29 c21 17 46 47 57 67
11 20 20 36 20 36 0 0 23 -12 50 -26z m-492 -29 c46 0 58 -3 63 -18 3 -10 23
-29 45 -43 28 -17 39 -30 35 -42 -2 -9 -7 -31 -11 -48 -7 -35 -43 -73 -92 -98
-55 -28 -80 -21 -139 37 l-54 54 19 44 c11 25 23 64 27 87 6 38 9 42 28 35 11
-5 47 -8 79 -8z m1089 -35 c18 -11 45 -20 61 -20 21 0 30 -7 38 -27 21 -55
-13 -178 -59 -213 -49 -39 -182 -12 -182 37 0 10 -9 37 -20 61 -11 24 -14 42
-9 42 36 0 79 36 106 86 15 30 29 54 30 54 2 0 17 -9 35 -20z m968 -25 c0 -5
-5 -3 -10 5 -5 8 -10 20 -10 25 0 6 5 3 10 -5 5 -8 10 -19 10 -25z m147 -38
c30 -29 46 -90 29 -111 -6 -9 -29 -22 -51 -29 l-40 -14 -23 36 c-13 20 -38 47
-57 60 -32 22 -34 25 -20 44 37 52 117 59 162 14z m-1859 -50 c31 -58 33 -66
23 -103 -14 -52 -44 -99 -76 -120 -35 -23 -104 -24 -116 -1 -6 9 -28 37 -49
63 -22 25 -40 49 -40 53 0 4 11 18 25 31 14 13 33 48 41 77 l15 53 37 -6 c20
-3 48 -1 62 5 40 16 43 14 78 -52z m383 37 c20 -24 60 -41 113 -49 39 -6 51
-13 67 -39 30 -49 25 -106 -14 -158 -40 -52 -69 -68 -125 -68 -73 0 -105 22
-136 92 l-26 62 24 21 c36 30 66 85 66 123 0 35 10 41 31 16z m961 -10 c111
-56 207 -191 230 -321 27 -162 -46 -338 -174 -419 -54 -34 -55 -30 -9 22 45
51 95 150 111 216 14 61 12 174 -4 233 -28 106 -82 188 -169 256 -57 46 -55
48 15 13z m-2048 0 c34 -88 -58 -244 -143 -244 -78 0 -81 109 -6 199 46 54
135 81 149 45z m2337 -24 c41 -13 78 -31 97 -50 33 -31 45 -55 15 -27 -20 17
-35 21 -73 17 l-25 -2 25 -7 c74 -19 100 -35 102 -63 0 -15 1 -33 2 -40 1 -6
-11 -13 -26 -15 -16 -2 -48 -12 -72 -23 l-45 -19 -25 55 c-24 53 -98 156 -130
184 -12 9 -14 15 -5 20 12 8 61 -1 160 -30z m744 -20 c101 -26 186 -65 221
-101 l28 -29 -17 -70 c-25 -104 -119 -282 -176 -334 -19 -18 -20 -17 -26 10
-3 16 -15 58 -27 94 -20 62 -22 88 -5 82 4 -1 6 4 5 10 -2 7 3 12 10 10 8 -1
11 2 7 7 -3 6 15 37 41 71 25 34 44 63 42 65 -2 3 -48 10 -101 17 -90 11 -96
14 -102 37 -10 39 -46 115 -59 123 -6 4 -21 8 -32 8 -12 0 -28 7 -35 17 -13
15 -8 16 67 9 45 -3 117 -15 159 -26z m-1261 5 c72 -47 52 -206 -34 -278 -89
-75 -185 -43 -183 61 1 72 50 160 115 209 37 27 69 29 102 8z m-1591 -51 c40
-38 46 -65 25 -125 -24 -73 -87 -139 -132 -139 -15 0 -17 5 -11 28 4 15 9 69
11 121 3 87 6 97 31 123 15 15 29 28 32 28 3 0 23 -16 44 -36z m1332 -73 c-15
-35 -32 -102 -39 -150 -12 -81 -14 -83 -20 -46 -4 22 -11 56 -16 76 -15 54
-13 64 20 99 16 17 35 50 42 71 9 33 14 38 25 26 11 -11 9 -23 -12 -76z m-784
40 c26 -24 98 -43 137 -35 28 6 32 3 51 -35 25 -48 27 -88 6 -139 -26 -61 -52
-82 -102 -82 -77 0 -106 19 -142 96 l-32 68 26 57 c14 31 25 64 25 73 0 21 6
20 31 -3z m-288 -100 c41 -51 43 -58 24 -104 -31 -74 -112 -137 -176 -137 -44
0 -61 10 -61 34 0 11 -11 42 -24 67 l-25 46 24 48 c14 26 27 62 31 80 6 31 8
33 43 28 24 -3 49 1 67 10 27 15 30 15 44 -5 8 -12 32 -42 53 -67z m2141 63
c33 -23 66 -74 66 -103 0 -6 -17 5 -37 24 -35 32 -133 92 -133 82 0 -3 21 -19
48 -36 64 -41 98 -79 110 -121 l10 -35 2 35 c1 20 4 27 7 17 7 -28 -6 -69 -19
-61 -7 4 -8 3 -4 -5 4 -6 3 -18 -4 -25 -9 -12 -21 -10 -69 12 -57 25 -59 27
-54 57 6 35 -19 92 -43 102 -20 8 -17 40 6 63 27 27 68 25 114 -6z m-1284 -39
c14 -8 44 -14 66 -15 48 0 52 -6 61 -90 8 -80 -30 -144 -111 -186 -26 -14 -32
-14 -81 8 -48 21 -53 25 -48 49 3 15 -3 45 -14 70 l-20 44 29 23 c15 13 40 43
54 68 29 49 29 49 64 29z m1520 -15 c14 -33 8 -93 -11 -116 -17 -21 -72 -17
-103 7 -27 21 -34 53 -14 65 7 5 8 3 4 -5 -5 -7 0 -19 10 -27 11 -9 12 -12 4
-8 -9 4 -12 3 -7 -2 14 -15 81 -10 101 8 17 16 18 20 4 63 -17 50 -7 62 12 15z
m-85 9 c15 -7 10 -8 -18 -3 -24 3 -37 2 -33 -4 3 -6 3 -18 -1 -28 -6 -15 -7
-15 -15 5 -4 13 -6 27 -2 32 7 11 43 10 69 -2z m338 -35 c15 -3 27 -9 27 -13
0 -4 -22 -32 -49 -62 l-48 -54 -37 74 -38 73 59 -6 c32 -4 70 -9 86 -12z
m-599 -16 c21 -30 20 -46 -9 -112 -24 -54 -26 -56 -64 -56 -21 0 -53 -3 -70
-6 l-31 -6 0 81 0 81 38 19 c52 28 116 27 136 -1z m-1811 -63 c23 -47 25 -58
15 -87 -32 -93 -103 -148 -195 -151 -43 -2 -48 0 -49 21 -1 13 -7 41 -14 62
-12 37 -11 40 18 72 29 30 39 49 56 101 4 12 16 17 43 18 21 0 47 4 58 9 35
15 40 11 68 -45z m2223 -32 c-2 -3 -16 -1 -29 3 -21 8 -23 12 -14 44 l9 35 20
-38 c11 -22 17 -41 14 -44z m-1794 27 c42 0 49 -3 63 -30 20 -39 19 -73 -4
-118 -37 -72 -126 -133 -165 -114 -11 6 -27 12 -35 14 -8 2 -24 35 -37 73
l-23 70 36 71 35 72 42 -19 c22 -10 62 -19 88 -19z m-1167 -2 c-12 -58 -63
-114 -85 -92 -17 17 15 86 48 106 39 24 44 22 37 -14z m1947 -18 c-3 -39 -27
-70 -54 -70 -25 0 -24 44 3 81 29 41 55 35 51 -11z m-1682 -22 c12 -27 20 -65
20 -102 0 -59 0 -59 -59 -118 -74 -74 -103 -76 -139 -11 l-23 43 25 62 c13 35
28 75 31 91 5 19 14 27 29 27 12 0 37 11 56 25 19 13 36 24 38 25 2 0 12 -19
22 -42z m2507 2 c2 -11 16 -39 33 -61 16 -23 32 -57 36 -75 10 -53 24 -40 24
21 0 56 -9 73 -56 102 -15 9 -12 9 13 0 38 -13 53 -43 53 -105 0 -40 -5 -51
-37 -84 -40 -41 -58 -46 -83 -23 -13 12 -16 27 -12 60 3 33 -1 53 -16 79 -17
28 -18 37 -7 46 7 6 18 24 25 41 13 31 22 31 27 -1z m211 -28 c24 -32 10 -155
-23 -197 -15 -20 -16 -19 -37 7 -16 20 -22 44 -24 100 -4 92 -6 108 -16 102
-4 -3 -8 -1 -8 5 0 25 85 13 108 -17z m-288 -49 c38 -42 39 -86 5 -153 -30
-59 -37 -64 -67 -49 -44 23 -58 29 -65 29 -13 -1 38 -40 51 -40 15 0 59 -46
76 -79 36 -69 -14 -193 -70 -173 -8 3 -26 17 -40 31 -14 15 -36 33 -49 42 -24
15 -24 16 -8 39 20 28 22 88 5 125 -11 24 -9 29 15 48 52 43 61 114 21 172
-21 31 -24 43 -15 61 l10 23 51 -21 c28 -11 64 -36 80 -55z m-1139 -27 c5 -22
21 -72 36 -110 l27 -69 -34 -29 c-42 -34 -68 -42 -114 -34 -30 6 -34 10 -39
47 -3 23 -19 63 -36 90 -29 47 -29 48 -9 55 29 9 97 72 114 107 l16 29 15 -22
c9 -12 20 -41 24 -64z m-750 54 c10 -6 45 -12 77 -14 51 -3 59 -6 74 -32 9
-16 20 -46 23 -66 l7 -38 -41 0 c-34 0 -49 -7 -92 -46 -49 -43 -55 -46 -93
-40 -51 9 -57 14 -66 67 -7 38 -5 46 26 86 19 25 37 55 40 69 7 26 16 29 45
14z m1749 -40 c30 -30 27 -100 -6 -139 -31 -38 -38 -38 -76 -6 -17 14 -50 31
-74 37 -34 9 -43 16 -38 28 3 8 8 30 11 48 6 33 13 37 78 45 67 9 86 6 105
-13z m-2080 -20 c15 -28 29 -108 23 -131 -4 -14 -11 -17 -29 -13 -39 10 -74
-20 -74 -61 0 -33 -2 -35 -33 -35 -39 0 -112 47 -122 79 -4 14 5 34 30 66 21
28 35 58 35 75 0 27 1 28 30 17 24 -9 39 -8 72 5 57 21 56 21 68 -2z m1654 -5
c3 -8 -3 -24 -13 -36 -22 -28 -51 -19 -51 15 0 40 50 56 64 21z m-827 -18 c54
-28 113 -115 113 -167 0 -42 -29 -92 -67 -117 -28 -18 -81 -21 -170 -8 l-42 6
6 48 c5 48 -16 111 -37 111 -21 0 -8 16 29 37 22 13 57 43 78 67 21 25 40 45
43 45 3 0 24 -10 47 -22z m1753 -98 c29 -116 30 -161 5 -189 -20 -22 -62 -24
-57 -2 1 8 -2 11 -7 8 -11 -7 -23 22 -15 35 3 5 0 8 -8 7 -9 -2 -14 11 -16 43
-2 36 2 55 22 83 l25 37 4 -43 c3 -37 4 -35 4 12 0 131 12 134 43 9z m-3367
-19 c-4 -4 -25 -17 -46 -29 l-37 -23 9 26 c6 13 22 49 37 78 l28 53 8 -49 c5
-27 5 -52 1 -56z m991 34 c4 -15 4 -41 0 -58 -6 -26 -4 -29 8 -19 9 8 19 9 28
3 8 -6 35 -10 59 -10 37 0 50 6 87 40 39 36 49 40 95 40 62 0 109 -21 149 -66
33 -38 38 -70 15 -114 -17 -34 -74 -80 -98 -80 -19 0 -23 -25 -6 -36 24 -14
47 -85 39 -118 -4 -17 -11 -44 -14 -59 -10 -41 -74 -67 -136 -55 -25 5 -106
10 -180 12 -133 2 -136 3 -212 39 -75 36 -118 74 -118 105 0 8 13 29 30 48 44
51 48 94 15 165 -16 32 -26 61 -24 64 3 2 24 -5 47 -16 57 -28 76 -21 58 23
-7 18 -10 47 -7 63 6 28 10 30 59 36 29 4 56 10 59 13 16 15 41 4 47 -20z
m1741 -3 c84 -38 133 -128 102 -187 -22 -41 -76 -90 -119 -108 -49 -21 -58
-20 -58 4 0 45 -29 90 -68 108 l-39 18 32 37 c18 21 44 62 56 92 26 60 35 63
94 36z m480 -8 l18 -28 -21 19 c-17 14 -22 16 -22 5 0 -20 35 -71 43 -62 4 3
7 -10 7 -30 0 -24 -7 -44 -20 -57 -29 -29 -50 -26 -50 8 0 15 -9 46 -20 70
l-19 43 32 29 c18 16 33 30 33 30 1 0 10 -12 19 -27z m-2820 -27 l26 -39 -37
-54 c-21 -30 -48 -62 -61 -70 -29 -19 -68 -10 -88 21 -16 24 -15 26 54 95 39
39 71 76 71 82 0 15 3 13 35 -35z m2670 14 c10 -11 24 -20 32 -20 8 0 23 -21
35 -47 25 -56 20 -123 -14 -192 -20 -39 -28 -46 -57 -49 -46 -5 -54 7 -36 51
8 20 15 50 15 67 0 31 -31 103 -49 115 -6 3 1 21 14 42 14 20 25 40 25 44 0
15 16 10 35 -11z m-3061 -134 c-19 -39 -34 -81 -34 -93 0 -24 -35 -63 -57 -63
-7 0 -17 19 -23 43 -6 23 -13 47 -15 54 -2 7 5 34 16 60 16 38 31 55 72 80 52
31 52 31 63 11 10 -18 6 -34 -22 -92z m579 47 c19 -17 41 -33 48 -35 10 -3 5
-17 -15 -52 -23 -40 -39 -53 -92 -77 -35 -16 -70 -29 -78 -29 -27 0 -86 60
-86 87 0 30 69 132 90 133 8 0 31 9 50 20 33 17 35 17 41 1 4 -9 23 -31 42
-48z m231 31 c9 -22 -3 -32 -14 -14 -12 19 -12 30 -1 30 5 0 12 -7 15 -16z
m1197 -75 c66 -67 70 -73 58 -95 -11 -21 -20 -24 -69 -24 -57 0 -57 0 -75 39
-10 22 -28 50 -41 62 l-24 22 38 33 c20 18 38 33 40 34 2 0 35 -32 73 -71z
m-1861 1 c27 0 51 -4 54 -8 3 -5 -8 -42 -24 -83 -16 -41 -29 -84 -30 -96 0
-21 -5 -23 -57 -23 -61 1 -82 10 -102 49 -16 30 -8 79 27 153 l26 56 29 -24
c22 -18 40 -24 77 -24z m1668 0 c48 -12 95 -66 112 -131 14 -50 0 -82 -47
-113 -47 -32 -84 -38 -147 -29 l-50 8 -1 67 c-1 42 -8 76 -18 91 -15 24 -14
26 31 75 26 27 54 48 62 47 8 -2 34 -9 58 -15z m-1074 -23 c15 -19 26 -42 26
-51 0 -37 -60 -126 -85 -126 -14 0 -70 59 -78 83 -5 12 6 38 28 73 43 66 71
72 109 21z m2582 -67 c20 -8 24 -17 24 -48 0 -21 -7 -62 -16 -92 l-16 -53 -47
47 c-26 25 -53 46 -62 46 -12 0 -14 12 -11 68 3 55 9 72 30 94 l26 28 24 -41
c13 -22 35 -44 48 -49z m-713 19 c34 -37 36 -94 5 -150 -34 -61 -62 -65 -150
-19 -45 24 -87 55 -109 82 l-37 44 67 17 c36 10 84 28 106 42 48 29 79 25 118
-16z m-2366 6 c24 -12 37 -13 59 -5 21 8 30 8 32 0 3 -7 18 -27 34 -46 24 -28
30 -44 33 -91 1 -32 6 -68 10 -81 6 -19 2 -24 -29 -37 -49 -21 -99 -19 -146 5
-78 40 -92 98 -51 208 13 34 24 62 26 62 1 0 16 -7 32 -15z m2929 -57 c-12
-149 -13 -153 -57 -165 -45 -12 -44 -12 -54 45 -5 34 -4 42 8 42 23 0 62 53
77 104 19 70 33 57 26 -26z m-1622 45 c74 -6 79 -8 97 -37 19 -31 25 -107 13
-154 -8 -28 -45 -48 -104 -56 -38 -6 -52 -2 -95 22 -43 25 -55 40 -86 103
l-36 74 28 13 c15 8 36 23 45 34 12 12 25 17 39 13 11 -3 55 -8 99 -12z m1856
-55 c0 -60 0 -61 -20 -43 -22 20 -28 83 -8 103 20 20 28 3 28 -60z m-1153 18
c39 -2 49 -8 83 -47 36 -42 38 -49 30 -83 -11 -49 -51 -107 -91 -130 -33 -19
-86 -18 -142 3 -24 9 -25 13 -15 41 14 42 2 107 -29 154 -24 37 -25 41 -10 71
l15 32 57 -19 c32 -10 78 -20 102 -22z m-2377 -29 c15 -39 14 -47 -6 -112 -14
-45 -28 -71 -40 -76 -11 -3 -22 -5 -25 -3 -13 8 35 234 50 234 3 0 13 -19 21
-43z m2992 5 c40 -38 40 -38 25 -68 -23 -44 -93 -104 -122 -104 -13 0 -35 11
-49 25 -19 18 -36 25 -66 25 -22 0 -40 2 -40 5 0 3 9 23 20 44 16 32 26 39 58
45 21 3 56 19 77 36 21 16 42 30 47 30 5 0 27 -17 50 -38z m-2267 -8 c10 -19
33 -45 49 -57 31 -21 46 -37 46 -48 0 -11 -166 -109 -184 -109 -48 0 -93 65
-98 140 -3 41 -2 43 37 54 22 7 58 22 80 34 22 12 42 21 45 22 3 0 14 -16 25
-36z m1461 -19 c37 -39 49 -85 41 -147 -11 -81 -78 -114 -172 -84 l-52 16 -6
53 c-4 50 -3 53 34 88 29 27 39 44 39 67 0 33 9 40 54 41 20 1 38 -9 62 -34z
m-2088 -10 c6 -13 25 -31 41 -40 29 -15 30 -16 17 -47 -21 -52 -28 -111 -16
-143 13 -33 6 -40 -49 -50 -31 -6 -39 -3 -63 24 -24 27 -28 40 -28 89 0 70 25
151 54 174 28 23 31 22 44 -7z m3047 -17 c22 -10 25 -18 25 -58 0 -56 -45
-135 -87 -151 -38 -14 -77 -3 -68 19 4 9 10 55 14 102 l6 85 35 6 c19 4 38 7
42 8 4 0 19 -4 33 -11z m375 -25 c18 -23 20 -35 14 -102 -8 -93 -12 -101 -41
-90 -17 6 -23 17 -24 41 0 18 -4 42 -8 52 -8 21 17 126 30 126 4 0 17 -12 29
-27z m-168 0 c18 -16 24 -74 12 -120 -5 -18 -13 -23 -42 -23 l-35 0 7 72 c6
62 16 87 35 88 3 0 13 -7 23 -17z m-774 -32 c72 -36 83 -49 84 -100 0 -43 -28
-93 -64 -112 -39 -21 -241 -90 -252 -86 -6 2 -25 -2 -43 -10 -32 -13 -148 -18
-176 -7 -12 4 -11 13 10 50 14 25 26 56 26 69 0 17 10 31 35 45 35 21 36 21
100 4 82 -22 97 -47 65 -105 -24 -44 -15 -53 12 -13 13 20 16 38 12 69 -6 38
-4 43 24 59 35 20 85 93 94 137 4 16 9 29 11 29 3 0 31 -13 62 -29z m-2296
-19 c10 -21 31 -45 48 -55 22 -14 30 -25 30 -47 0 -16 4 -40 10 -55 9 -24 7
-27 -33 -45 -23 -11 -57 -20 -75 -20 -92 0 -140 113 -92 218 18 39 22 42 57
42 34 0 40 -4 55 -38z m2735 -32 c-10 -90 -43 -139 -94 -140 -25 0 -95 31 -90
39 2 3 10 21 17 38 11 25 22 34 47 39 18 3 52 24 75 45 24 21 45 38 47 39 2 0
1 -27 -2 -60z m443 -66 c0 -88 -37 -162 -75 -148 -16 7 -17 17 -11 122 3 63 9
118 11 123 3 4 21 -8 40 -27 27 -26 35 -43 35 -70z m-2607 78 c9 -10 43 -31
76 -47 33 -15 58 -31 56 -35 -3 -4 -24 -10 -47 -14 -24 -4 -82 -19 -131 -33
l-87 -26 -25 23 c-14 13 -25 29 -25 36 0 14 136 112 156 113 6 1 18 -7 27 -17z
m708 -17 c30 -19 62 -41 72 -50 20 -18 22 -54 5 -77 -12 -15 -21 -14 -98 8
-122 36 -118 33 -90 47 17 8 30 28 39 60 8 26 16 47 17 47 1 0 26 -16 55 -35z
m1269 15 c26 -26 25 -38 -9 -91 -44 -71 -74 -89 -143 -89 l-59 0 32 40 c29 36
31 44 26 90 -6 46 -4 50 16 55 86 18 115 17 137 -5z m-846 -26 c11 -35 -7 -94
-41 -128 -14 -14 -51 -33 -81 -42 -52 -15 -58 -15 -133 6 -72 21 -79 25 -72
44 9 27 8 45 0 72 -7 19 -3 22 43 28 30 4 60 16 77 30 24 21 35 23 112 20 83
-3 86 -5 95 -30z m1287 -16 c3 -99 -12 -140 -61 -165 -33 -16 -53 -6 -47 26 3
14 -1 41 -9 60 -13 30 -12 37 4 65 13 22 26 31 45 31 14 1 29 4 33 8 18 17 34
5 35 -25z m-2693 -18 c17 -16 40 -30 51 -30 12 0 21 -5 21 -12 0 -7 11 -24 25
-38 l26 -27 -83 -28 -84 -28 -56 18 c-63 19 -85 38 -96 81 -14 51 -6 62 42 57
31 -4 53 0 82 15 21 12 40 21 41 22 1 0 15 -13 31 -30z m-598 -15 c0 -33 25
-82 49 -94 10 -6 21 -21 23 -35 4 -22 -2 -28 -57 -55 -34 -17 -65 -31 -69 -31
-3 0 -6 51 -6 114 0 124 -4 114 53 125 4 0 7 -10 7 -24z m3378 -67 c3 -52 -25
-120 -56 -137 -20 -10 -102 20 -102 38 0 5 15 19 34 30 33 21 56 63 56 103 0
16 6 19 33 16 31 -3 32 -5 35 -50z m-1263 13 c48 -8 55 -31 29 -87 -27 -56
-47 -60 -161 -34 -54 12 -102 25 -107 28 -5 2 9 11 30 18 22 7 56 32 79 57 35
39 43 43 65 35 14 -5 43 -13 65 -17z m1051 -19 c6 -29 2 -37 -36 -73 -42 -40
-42 -40 -68 -23 -15 10 -39 31 -54 48 -15 17 -29 28 -33 25 -3 -4 6 -17 20
-30 13 -13 25 -32 25 -41 0 -10 5 -15 13 -12 15 5 44 -22 34 -32 -3 -3 -18 1
-34 9 -15 8 -54 25 -85 37 -32 12 -58 25 -58 29 1 18 30 41 51 41 13 0 37 11
53 24 23 18 39 22 70 19 27 -3 48 1 61 11 24 18 32 11 41 -32z m477 25 c3 -8
1 -20 -4 -28 -6 -10 -9 -7 -9 14 0 29 5 35 13 14z m-756 -29 c9 -7 9 -16 1
-34 -13 -27 -18 -28 -71 -13 l-39 10 29 29 c28 29 51 31 80 8z m631 10 c17
-17 15 -43 -10 -127 l-22 -74 -16 48 c-15 45 -15 51 4 106 22 63 25 66 44 47z
m-3311 -50 c13 -12 23 -28 23 -35 0 -8 11 -25 25 -38 l24 -25 -28 0 c-45 0
-124 30 -149 57 -27 30 -25 45 9 54 45 13 73 9 96 -13z m277 -28 c46 -15 38
-21 -49 -43 -115 -29 -122 -29 -155 -1 -16 14 -30 30 -30 34 0 5 24 14 53 20
28 6 63 17 77 25 22 12 27 11 45 -4 11 -10 38 -24 59 -31z m2716 -48 c0 -21
-6 -46 -13 -56 -13 -17 -15 -17 -55 3 -23 12 -42 27 -42 34 0 6 17 26 37 44
48 39 73 31 73 -25z m220 18 c24 -13 42 -74 30 -104 -4 -12 -15 -28 -24 -35
-13 -11 -17 -9 -26 14 -5 14 -13 51 -16 81 -7 57 -1 64 36 44z m-46 -72 c12
-105 11 -108 -34 -108 l-39 0 -17 58 c-9 31 -18 60 -20 64 -3 4 11 4 30 1 28
-4 37 -1 48 16 19 31 25 26 32 -31z m-113 -55 c19 -73 19 -83 6 -116 -20 -45
-56 -69 -116 -75 -60 -5 -74 11 -29 34 40 20 59 42 95 112 20 39 24 55 15 61
-8 5 -10 19 -6 40 4 17 8 30 11 28 2 -2 13 -40 24 -84z m-156 -23 c26 -11 55
-20 66 -20 42 0 7 -57 -62 -100 -27 -16 -51 -30 -54 -30 -8 0 -17 89 -9 102 5
7 7 25 5 40 -3 33 -5 33 54 8z m341 -25 c-8 -19 -20 -43 -25 -52 -9 -15 -10
-14 -11 11 0 17 9 40 22 53 29 31 31 29 14 -12z m95 -28 c-10 -9 -11 -8 -5 6
3 10 9 15 12 12 3 -3 0 -11 -7 -18z m-158 -39 c4 -30 0 -52 -13 -78 -28 -55
-69 -100 -91 -100 -16 0 -19 7 -17 45 0 25 -2 48 -5 52 -4 3 -7 -10 -7 -30 0
-24 -8 -45 -24 -64 -22 -26 -30 -28 -98 -28 l-73 0 -3 64 c-3 58 -1 63 15 56
10 -4 43 -10 73 -12 69 -6 115 21 145 84 15 34 25 43 50 46 16 2 33 5 36 5 4
1 9 -17 12 -40z m227 -37 c-5 -11 -15 -23 -21 -27 -6 -3 -3 5 6 20 20 30 30
35 15 7z m-85 -110 c10 -61 -46 -153 -99 -163 -15 -2 -22 6 -31 43 l-12 47 51
77 c50 75 51 76 67 56 10 -12 20 -39 24 -60z m-257 -63 c1 -8 -33 -52 -77 -99
l-80 -84 24 60 c14 33 25 69 25 80 0 13 14 27 43 42 46 23 61 24 65 1z m-162
-18 c27 0 34 -4 34 -20 0 -34 -41 -131 -70 -163 l-28 -32 -36 18 c-20 9 -36
21 -36 27 0 6 11 32 24 58 13 26 29 64 36 85 8 27 16 37 27 33 8 -3 30 -6 49
-6z m270 -66 c4 -20 2 -52 -5 -72 -19 -65 -23 -66 -73 -35 l-45 28 51 57 c28
32 54 58 58 58 4 0 10 -16 14 -36z m164 -127 c0 -52 -23 -67 -107 -67 -83 0
-88 7 -52 70 13 24 18 27 13 11 -6 -22 -4 -23 17 -16 13 4 45 10 72 12 50 5
55 10 35 33 -11 12 -10 12 5 1 9 -8 17 -27 17 -44z m90 33 c0 -5 11 -12 24
-16 13 -3 34 -17 47 -30 17 -18 25 -21 32 -12 6 10 7 9 4 -2 -6 -19 -7 -19
-102 30 -77 39 -78 40 -42 40 20 0 37 -4 37 -10z m-380 -10 c0 -5 -4 -10 -10
-10 -5 0 -10 -4 -10 -10 0 -5 9 -10 21 -10 12 0 18 4 13 11 -4 7 7 1 24 -11
37 -27 42 -38 32 -66 -10 -25 -101 -56 -108 -36 -2 6 -19 21 -38 32 l-34 22
47 43 c49 45 63 53 63 35z m494 -16 c3 -8 2 -12 -4 -9 -6 3 -10 10 -10 16 0
14 7 11 14 -7z m-746 -32 c23 -15 22 -15 -50 -64 -40 -27 -86 -56 -102 -65
-27 -14 -26 -11 15 38 25 30 56 69 68 87 13 19 27 29 34 25 7 -3 22 -13 35
-21z m562 -36 c0 -2 -8 -10 -17 -17 -16 -13 -17 -12 -4 4 13 16 21 21 21 13z
m-404 -27 c19 -11 34 -24 34 -28 0 -7 -86 -71 -95 -71 -3 0 -5 12 -5 28 0 15
-5 34 -10 42 -7 11 -4 20 13 32 27 22 23 22 63 -3z m-90 -77 c5 -25 3 -33 -11
-39 -10 -3 -43 -21 -73 -40 -31 -18 -68 -33 -82 -33 -30 0 -72 28 -53 36 19 8
177 105 188 115 13 12 23 -1 31 -39z m569 18 c3 -6 -1 -7 -9 -4 -18 7 -21 14
-7 14 6 0 13 -4 16 -10z m-269 -45 c81 -49 93 -65 87 -117 -8 -77 -12 -86 -40
-92 -16 -4 -35 -9 -44 -12 -12 -3 -18 4 -22 25 -4 17 -22 48 -42 69 -19 22
-35 50 -35 63 0 13 -7 37 -15 53 -19 36 -20 34 13 39 15 2 30 5 33 6 3 0 32
-15 65 -34z m132 10 c40 -16 42 -19 42 -57 0 -39 -1 -40 -27 -33 -16 3 -39 20
-52 37 -14 17 -47 42 -75 55 l-51 25 60 -5 c33 -3 79 -13 103 -22z m-257 -34
c6 -22 9 -47 6 -55 -9 -24 -98 -21 -139 4 -18 11 -42 20 -52 20 -11 0 -17 2
-14 6 7 7 159 62 175 63 7 1 17 -17 24 -38z m374 -21 c-3 -5 11 -14 30 -21 37
-14 50 -40 57 -119 4 -45 -16 -50 -62 -14 -43 33 -80 102 -80 148 0 34 0 35
30 25 16 -6 28 -15 25 -19z m-805 -64 c-13 -39 -70 -95 -117 -115 -28 -12 -34
-10 -72 14 -22 15 -39 31 -36 35 3 4 40 22 82 39 43 18 94 40 113 51 19 10 37
17 38 15 2 -2 -1 -19 -8 -39z m269 33 c35 -12 49 -46 32 -78 -12 -21 -55 -36
-133 -47 l-45 -6 2 52 c3 45 7 55 32 70 33 22 68 24 112 9z m448 -29 c47 0 84
-137 50 -184 -32 -43 -107 42 -107 121 0 55 10 87 23 74 6 -6 21 -11 34 -11z
m-614 -9 c18 -18 -4 -82 -41 -123 -61 -68 -135 -84 -184 -40 -26 22 -23 28 25
47 52 21 83 49 109 99 18 35 22 38 51 32 17 -4 35 -10 40 -15z m813 -7 c-4
-11 -1 -14 12 -10 26 9 135 -94 126 -117 -8 -22 -19 -21 -80 7 -49 23 -53 27
-63 76 -13 62 -13 60 0 60 6 0 8 -7 5 -16z m-437 -15 c25 -24 41 -59 41 -94 0
-34 -31 -95 -48 -95 -30 0 -99 50 -112 79 -11 28 -50 72 -50 57 0 -4 9 -25 21
-48 25 -49 21 -95 -13 -138 -27 -33 -61 -38 -98 -13 -14 9 -26 17 -27 18 -2 1
6 19 17 40 23 45 25 67 9 97 -11 20 -9 21 42 16 44 -5 50 -3 36 7 -16 11 -15
14 8 29 14 9 25 25 25 35 0 27 9 31 70 31 43 0 61 -5 79 -21z m-2763 -40 l33
-20 -22 -62 c-17 -47 -30 -67 -57 -84 -19 -12 -40 -27 -46 -32 -18 -15 -22 -3
-13 38 11 49 60 181 66 181 3 0 21 -9 39 -21z m3150 -115 c7 -51 -2 -64 -47
-64 -38 0 -57 25 -35 48 9 11 16 36 16 61 l0 42 29 -21 c23 -16 31 -31 37 -66z
m-668 54 c18 -15 14 -48 -11 -93 -38 -68 -115 -74 -142 -12 l-14 32 -1 -32 c0
-22 -8 -38 -26 -52 -15 -12 -30 -21 -34 -21 -8 0 -60 86 -60 97 0 3 12 3 28 0
48 -10 101 13 141 61 33 40 39 43 71 37 19 -4 41 -11 48 -17z m466 -23 c16
-29 17 -39 6 -65 -7 -16 -30 -46 -52 -65 -43 -40 -69 -40 -100 -1 -23 27 -22
38 2 86 11 22 20 46 20 54 0 10 13 16 38 19 20 2 44 4 52 5 9 1 24 -14 34 -33z
m260 -7 l17 -23 -7 24 c-3 13 -2 22 2 20 5 -2 31 -13 58 -23 l48 -20 -5 -40
c-6 -41 -35 -76 -63 -76 -29 0 -81 59 -88 101 -10 61 8 78 38 37z m-436 -120
c34 -57 26 -135 -16 -157 -21 -11 -92 6 -97 24 -2 5 -6 22 -9 36 -3 14 -17 37
-31 51 l-25 25 25 23 c14 13 27 38 31 56 l6 33 47 -27 c29 -15 57 -41 69 -64z
m262 46 c32 -29 40 -43 40 -71 0 -40 -23 -88 -46 -97 -31 -12 -83 5 -109 36
-31 37 -31 39 1 69 14 13 35 41 45 62 11 20 22 37 24 37 3 0 23 -16 45 -36z
m176 -61 c30 -25 44 -45 44 -61 0 -24 -1 -25 -57 -18 -102 12 -103 13 -103 61
0 37 3 44 23 48 43 8 49 7 93 -30z m-818 -1 c42 -6 80 -71 63 -108 -15 -33
-53 -55 -102 -57 l-43 -2 -27 64 -27 65 36 27 c21 15 44 25 52 22 8 -3 30 -8
48 -11z m98 4 c11 -8 38 -19 61 -25 47 -13 83 -51 83 -88 0 -48 -83 -98 -121
-74 -10 6 -26 11 -35 11 -16 0 -15 -2 1 -20 37 -41 -18 -95 -89 -88 -22 2 -37
13 -53 37 -13 19 -23 37 -23 42 0 4 24 10 52 14 40 6 60 15 85 40 38 38 41 66
13 113 -28 46 -15 66 26 38z m-2609 -38 c-3 -8 -6 -5 -6 6 -1 11 2 17 5 13 3
-3 4 -12 1 -19z m3017 -41 c24 -33 16 -66 -31 -118 -33 -36 -40 -40 -77 -37
-34 3 -42 7 -44 27 -3 16 6 31 28 50 27 22 33 36 37 78 l5 51 32 -13 c17 -7
39 -24 50 -38z m262 -20 l57 -13 -84 -42 c-99 -49 -221 -92 -261 -92 l-29 0
34 30 c19 16 40 44 47 60 11 28 17 30 52 28 45 -2 58 -20 39 -50 -11 -17 -10
-19 6 -16 11 2 19 14 21 33 4 33 39 88 52 80 4 -3 34 -11 66 -18z m-467 -58
c59 -21 32 -79 -45 -95 -22 -4 -36 0 -54 17 -18 16 -21 23 -11 27 7 2 28 17
45 33 17 16 31 29 32 29 1 0 15 -5 33 -11z m-3242 -65 c-3 -3 -12 -4 -19 -1
-8 3 -5 6 6 6 11 1 17 -2 13 -5z m3350 -45 c15 0 -19 -11 -77 -25 -58 -13
-109 -23 -113 -21 -4 1 21 19 55 39 58 34 64 36 85 23 12 -8 35 -15 50 -16z"/>
<path d="M1828 3793 c7 -3 16 -2 19 1 4 3 -2 6 -13 5 -11 0 -14 -3 -6 -6z"/>
<path d="M3028 3614 c-27 -13 -48 -27 -48 -29 0 -3 21 5 48 18 26 14 54 27 62
30 13 5 13 5 0 6 -8 0 -36 -11 -62 -25z"/>
<path d="M1936 3359 c3 -5 -1 -9 -8 -9 -7 0 6 -11 30 -25 23 -13 69 -47 102
-76 39 -34 65 -49 75 -45 26 9 -22 62 -59 64 -33 3 -87 41 -81 59 2 6 -2 16
-8 21 -17 13 -58 22 -51 11z"/>
<path d="M2721 3286 c-14 -15 -19 -26 -12 -31 20 -12 11 -26 -11 -21 -13 3
-17 3 -10 0 18 -8 15 -24 -5 -25 -13 0 -11 -3 7 -10 17 -7 26 -7 28 1 2 5 7 8
12 5 4 -3 25 7 46 21 30 21 42 24 56 15 14 -9 16 -8 12 4 -4 8 -1 15 5 15 6 0
11 -5 11 -11 0 -5 5 -7 10 -4 18 11 -1 26 -28 22 -19 -3 -34 3 -49 20 -28 29
-44 29 -72 -1z"/>
<path d="M2380 3009 c0 -5 5 -7 10 -4 6 3 10 8 10 11 0 2 -4 4 -10 4 -5 0 -10
-5 -10 -11z"/>
<path d="M2927 2933 c9 -26 24 -43 37 -43 6 0 3 7 -6 14 -10 7 -18 18 -18 24
0 6 -4 14 -10 17 -6 4 -7 -1 -3 -12z"/>
<path d="M2747 3049 c7 -7 15 -10 18 -7 3 3 -2 9 -12 12 -14 6 -15 5 -6 -5z"/>
<path d="M2779 3039 c-1 -7 -1 -17 0 -21 0 -5 -4 -8 -10 -8 -5 0 -7 -4 -4 -10
3 -5 -1 -10 -9 -10 -8 0 -18 5 -21 10 -3 6 -11 10 -16 10 -6 0 12 -18 40 -40
28 -22 53 -40 56 -40 3 0 14 -9 26 -21 27 -27 48 -11 26 21 -11 15 -16 18 -20
8 -3 -7 -3 1 -1 17 4 25 -1 36 -30 64 -24 23 -36 30 -37 20z"/>
<path d="M3210 2858 c26 -13 55 -39 69 -60 25 -39 37 -44 27 -10 -9 26 -94 92
-120 92 -13 0 -5 -8 24 -22z"/>
<path d="M3608 2473 c7 -3 16 -2 19 1 4 3 -2 6 -13 5 -11 0 -14 -3 -6 -6z"/>
<path d="M1675 2179 c-22 -11 -47 -28 -55 -36 -13 -13 -13 -14 7 -9 18 6 21 4
16 -15 -5 -20 -3 -21 28 -14 40 8 91 35 96 51 5 14 -23 44 -40 44 -7 0 -30 -9
-52 -21z"/>
<path d="M3698 1214 c-26 -42 -26 -44 -8 -54 15 -8 22 -6 34 12 17 24 20 56 8
74 -4 7 -17 -5 -34 -32z"/>
<path d="M3463 54 c-18 -8 -33 -16 -33 -18 0 -5 70 11 76 17 13 13 -14 13 -43
1z"/>
<path d="M4090 274 c0 -6 7 -19 16 -30 14 -18 14 -18 3 6 -14 31 -19 36 -19
24z"/>
<path d="M4102 200 c0 -14 2 -19 5 -12 2 6 2 18 0 25 -3 6 -5 1 -5 -13z"/>
<path d="M3010 10 c-13 -8 -13 -10 2 -10 9 0 20 5 23 10 8 13 -5 13 -25 0z"/>
</g>
</svg>
